<mxfile host="app.diagrams.net" modified="2021-08-20T07:09:02.188Z" agent="5.0 (Macintosh; Intel Mac OS X 10_15_7) AppleWebKit/537.36 (KHTML, like Gecko) Chrome/92.0.4515.131 Safari/537.36 Edg/92.0.902.73" etag="EJoPQuMkziJWzG3n25Bk" version="14.9.8" type="github">
  <diagram id="HHThTFF3kaM29xGKlaXV" name="Page-1">
    <mxGraphModel dx="1910" dy="809" grid="1" gridSize="10" guides="1" tooltips="1" connect="1" arrows="1" fold="1" page="0" pageScale="1" pageWidth="827" pageHeight="1169" math="0" shadow="0">
      <root>
        <mxCell id="0" />
        <mxCell id="1" parent="0" />
        <mxCell id="NF2yhESSKYTmsXL2PAX3-3" value="" style="group" parent="1" vertex="1" connectable="0">
          <mxGeometry x="-110" y="160" width="280" height="440" as="geometry" />
        </mxCell>
        <mxCell id="NF2yhESSKYTmsXL2PAX3-1" value="" style="rounded=1;whiteSpace=wrap;html=1;" parent="NF2yhESSKYTmsXL2PAX3-3" vertex="1">
          <mxGeometry width="280" height="440" as="geometry" />
        </mxCell>
        <mxCell id="NF2yhESSKYTmsXL2PAX3-2" value="&lt;b&gt;&lt;font style=&quot;font-size: 28px&quot; color=&quot;#636363&quot;&gt;Client SDK&lt;/font&gt;&lt;/b&gt;" style="text;html=1;strokeColor=none;fillColor=none;align=center;verticalAlign=middle;whiteSpace=wrap;rounded=0;" parent="NF2yhESSKYTmsXL2PAX3-3" vertex="1">
          <mxGeometry x="10" y="29.33" width="160.24" height="29.33" as="geometry" />
        </mxCell>
        <mxCell id="NF2yhESSKYTmsXL2PAX3-13" value="&lt;meta charset=&quot;utf-8&quot;&gt;&lt;span style=&quot;color: rgb(69, 69, 69); font-family: helvetica; font-size: 18px; font-style: normal; font-weight: 400; letter-spacing: normal; text-align: center; text-indent: 0px; text-transform: none; word-spacing: 0px; background-color: rgb(255, 255, 255); display: inline; float: none;&quot;&gt;Browser&lt;/span&gt;" style="rounded=1;whiteSpace=wrap;html=1;" parent="NF2yhESSKYTmsXL2PAX3-3" vertex="1">
          <mxGeometry x="110" y="100" width="120" height="60" as="geometry" />
        </mxCell>
        <mxCell id="NF2yhESSKYTmsXL2PAX3-20" value="&lt;font color=&quot;#454545&quot; face=&quot;helvetica&quot;&gt;&lt;span style=&quot;font-size: 18px&quot;&gt;MiniProgram&lt;/span&gt;&lt;/font&gt;" style="rounded=1;whiteSpace=wrap;html=1;" parent="NF2yhESSKYTmsXL2PAX3-3" vertex="1">
          <mxGeometry x="110" y="180" width="120" height="60" as="geometry" />
        </mxCell>
        <mxCell id="NF2yhESSKYTmsXL2PAX3-21" value="&lt;span style=&quot;color: rgb(69 , 69 , 69) ; font-family: &amp;#34;helvetica&amp;#34; ; font-size: 18px ; font-style: normal ; font-weight: 400 ; letter-spacing: normal ; text-align: center ; text-indent: 0px ; text-transform: none ; word-spacing: 0px ; background-color: rgb(255 , 255 , 255) ; display: inline ; float: none&quot;&gt;RN&lt;/span&gt;" style="rounded=1;whiteSpace=wrap;html=1;" parent="NF2yhESSKYTmsXL2PAX3-3" vertex="1">
          <mxGeometry x="110" y="260" width="120" height="60" as="geometry" />
        </mxCell>
        <mxCell id="NF2yhESSKYTmsXL2PAX3-41" value="&lt;span style=&quot;color: rgb(69 , 69 , 69) ; font-family: &amp;#34;helvetica&amp;#34; ; font-size: 18px ; font-style: normal ; font-weight: 400 ; letter-spacing: normal ; text-align: center ; text-indent: 0px ; text-transform: none ; word-spacing: 0px ; background-color: rgb(255 , 255 , 255) ; display: inline ; float: none&quot;&gt;Unit Testing&lt;/span&gt;" style="rounded=1;whiteSpace=wrap;html=1;" parent="NF2yhESSKYTmsXL2PAX3-3" vertex="1">
          <mxGeometry x="30" y="350" width="210" height="60" as="geometry" />
        </mxCell>
        <mxCell id="NF2yhESSKYTmsXL2PAX3-6" value="" style="group" parent="1" vertex="1" connectable="0">
          <mxGeometry x="460" y="160" width="280" height="440" as="geometry" />
        </mxCell>
        <mxCell id="NF2yhESSKYTmsXL2PAX3-7" value="" style="rounded=1;whiteSpace=wrap;html=1;" parent="NF2yhESSKYTmsXL2PAX3-6" vertex="1">
          <mxGeometry width="280" height="440" as="geometry" />
        </mxCell>
        <mxCell id="NF2yhESSKYTmsXL2PAX3-8" value="&lt;font color=&quot;#636363&quot;&gt;&lt;span style=&quot;font-size: 28px&quot;&gt;&lt;b&gt;Server&lt;/b&gt;&lt;/span&gt;&lt;/font&gt;" style="text;html=1;strokeColor=none;fillColor=none;align=center;verticalAlign=middle;whiteSpace=wrap;rounded=0;" parent="NF2yhESSKYTmsXL2PAX3-6" vertex="1">
          <mxGeometry x="38.62068965517241" y="29.333333333333336" width="38.62068965517241" height="29.333333333333336" as="geometry" />
        </mxCell>
        <mxCell id="NF2yhESSKYTmsXL2PAX3-24" value="&lt;span style=&quot;color: rgb(69 , 69 , 69) ; font-family: &amp;#34;helvetica&amp;#34; ; font-size: 18px ; font-style: normal ; font-weight: 400 ; letter-spacing: normal ; text-align: center ; text-indent: 0px ; text-transform: none ; word-spacing: 0px ; background-color: rgb(255 , 255 , 255) ; display: inline ; float: none&quot;&gt;Egg&lt;/span&gt;" style="rounded=1;whiteSpace=wrap;html=1;" parent="NF2yhESSKYTmsXL2PAX3-6" vertex="1">
          <mxGeometry x="19.999999999999943" y="100" width="120" height="60" as="geometry" />
        </mxCell>
        <mxCell id="NF2yhESSKYTmsXL2PAX3-42" value="&lt;span style=&quot;color: rgb(69 , 69 , 69) ; font-family: &amp;#34;helvetica&amp;#34; ; font-size: 18px ; font-style: normal ; font-weight: 400 ; letter-spacing: normal ; text-align: center ; text-indent: 0px ; text-transform: none ; word-spacing: 0px ; background-color: rgb(255 , 255 , 255) ; display: inline ; float: none&quot;&gt;Unit Testing&lt;/span&gt;" style="rounded=1;whiteSpace=wrap;html=1;" parent="NF2yhESSKYTmsXL2PAX3-6" vertex="1">
          <mxGeometry x="35" y="350" width="210" height="60" as="geometry" />
        </mxCell>
        <mxCell id="NF2yhESSKYTmsXL2PAX3-9" value="" style="group" parent="1" vertex="1" connectable="0">
          <mxGeometry x="830" y="160" width="280" height="440" as="geometry" />
        </mxCell>
        <mxCell id="NF2yhESSKYTmsXL2PAX3-10" value="" style="rounded=1;whiteSpace=wrap;html=1;" parent="NF2yhESSKYTmsXL2PAX3-9" vertex="1">
          <mxGeometry width="280" height="440" as="geometry" />
        </mxCell>
        <mxCell id="NF2yhESSKYTmsXL2PAX3-11" value="&lt;b&gt;&lt;font style=&quot;font-size: 28px&quot; color=&quot;#636363&quot;&gt;Database&lt;/font&gt;&lt;/b&gt;" style="text;html=1;strokeColor=none;fillColor=none;align=center;verticalAlign=middle;whiteSpace=wrap;rounded=0;" parent="NF2yhESSKYTmsXL2PAX3-9" vertex="1">
          <mxGeometry x="60.00068965517241" y="29.333333333333336" width="38.62068965517241" height="29.333333333333336" as="geometry" />
        </mxCell>
        <mxCell id="NF2yhESSKYTmsXL2PAX3-22" value="&lt;span style=&quot;color: rgb(69 , 69 , 69) ; font-family: &amp;#34;helvetica&amp;#34; ; font-size: 18px ; font-style: normal ; font-weight: 400 ; letter-spacing: normal ; text-align: center ; text-indent: 0px ; text-transform: none ; word-spacing: 0px ; background-color: rgb(255 , 255 , 255) ; display: inline ; float: none&quot;&gt;ES&lt;/span&gt;" style="rounded=1;whiteSpace=wrap;html=1;" parent="NF2yhESSKYTmsXL2PAX3-9" vertex="1">
          <mxGeometry x="19.309999999999945" y="100" width="120" height="60" as="geometry" />
        </mxCell>
        <mxCell id="NF2yhESSKYTmsXL2PAX3-23" value="&lt;font color=&quot;#454545&quot; face=&quot;helvetica&quot;&gt;&lt;span style=&quot;font-size: 18px&quot;&gt;Mysql&lt;/span&gt;&lt;/font&gt;" style="rounded=1;whiteSpace=wrap;html=1;" parent="NF2yhESSKYTmsXL2PAX3-9" vertex="1">
          <mxGeometry x="19.309999999999945" y="180" width="120" height="60" as="geometry" />
        </mxCell>
        <mxCell id="NF2yhESSKYTmsXL2PAX3-36" value="" style="edgeStyle=orthogonalEdgeStyle;rounded=0;orthogonalLoop=1;jettySize=auto;html=1;" parent="1" source="NF2yhESSKYTmsXL2PAX3-25" target="NF2yhESSKYTmsXL2PAX3-1" edge="1">
          <mxGeometry relative="1" as="geometry" />
        </mxCell>
        <mxCell id="NF2yhESSKYTmsXL2PAX3-25" value="&lt;span style=&quot;color: rgb(69 , 69 , 69) ; font-family: &amp;#34;helvetica&amp;#34; ; font-size: 18px ; font-style: normal ; font-weight: 400 ; letter-spacing: normal ; text-align: center ; text-indent: 0px ; text-transform: none ; word-spacing: 0px ; background-color: rgb(255 , 255 , 255) ; display: inline ; float: none&quot;&gt;E2E Testing&lt;/span&gt;" style="rounded=1;whiteSpace=wrap;html=1;" parent="1" vertex="1">
          <mxGeometry x="-60" y="700" width="180" height="60" as="geometry" />
        </mxCell>
        <mxCell id="NF2yhESSKYTmsXL2PAX3-26" value="&lt;span style=&quot;color: rgb(69 , 69 , 69) ; font-family: &amp;#34;helvetica&amp;#34; ; font-size: 18px ; font-style: normal ; font-weight: 400 ; letter-spacing: normal ; text-align: center ; text-indent: 0px ; text-transform: none ; word-spacing: 0px ; background-color: rgb(255 , 255 , 255) ; display: inline ; float: none&quot;&gt;E2E Testing Validate&lt;/span&gt;" style="rounded=1;whiteSpace=wrap;html=1;" parent="1" vertex="1">
          <mxGeometry x="880" y="700" width="180" height="60" as="geometry" />
        </mxCell>
        <mxCell id="NF2yhESSKYTmsXL2PAX3-30" value="" style="edgeStyle=orthogonalEdgeStyle;rounded=0;orthogonalLoop=1;jettySize=auto;html=1;" parent="1" source="NF2yhESSKYTmsXL2PAX3-1" target="NF2yhESSKYTmsXL2PAX3-7" edge="1">
          <mxGeometry relative="1" as="geometry" />
        </mxCell>
        <mxCell id="NF2yhESSKYTmsXL2PAX3-34" style="edgeStyle=orthogonalEdgeStyle;rounded=0;orthogonalLoop=1;jettySize=auto;html=1;exitX=1;exitY=0.5;exitDx=0;exitDy=0;entryX=0;entryY=0.5;entryDx=0;entryDy=0;" parent="1" source="NF2yhESSKYTmsXL2PAX3-7" target="NF2yhESSKYTmsXL2PAX3-10" edge="1">
          <mxGeometry relative="1" as="geometry" />
        </mxCell>
        <mxCell id="NF2yhESSKYTmsXL2PAX3-35" value="" style="edgeStyle=orthogonalEdgeStyle;rounded=0;orthogonalLoop=1;jettySize=auto;html=1;" parent="1" source="NF2yhESSKYTmsXL2PAX3-10" target="NF2yhESSKYTmsXL2PAX3-26" edge="1">
          <mxGeometry relative="1" as="geometry" />
        </mxCell>
        <mxCell id="NF2yhESSKYTmsXL2PAX3-40" style="edgeStyle=orthogonalEdgeStyle;rounded=0;orthogonalLoop=1;jettySize=auto;html=1;" parent="1" source="NF2yhESSKYTmsXL2PAX3-39" edge="1">
          <mxGeometry relative="1" as="geometry">
            <mxPoint x="310" y="380" as="targetPoint" />
          </mxGeometry>
        </mxCell>
        <mxCell id="NF2yhESSKYTmsXL2PAX3-39" value="&lt;span style=&quot;color: rgb(69 , 69 , 69) ; font-family: &amp;#34;helvetica&amp;#34; ; font-size: 18px ; font-style: normal ; font-weight: 400 ; letter-spacing: normal ; text-align: center ; text-indent: 0px ; text-transform: none ; word-spacing: 0px ; background-color: rgb(255 , 255 , 255) ; display: inline ; float: none&quot;&gt;E2E Testing Validate&lt;/span&gt;" style="rounded=1;whiteSpace=wrap;html=1;" parent="1" vertex="1">
          <mxGeometry x="220" y="700" width="180" height="60" as="geometry" />
        </mxCell>
        <mxCell id="NF2yhESSKYTmsXL2PAX3-44" value="&lt;ol style=&quot;font-size: 24px&quot;&gt;&lt;li style=&quot;font-size: 24px&quot;&gt;工程化&lt;/li&gt;&lt;li style=&quot;font-size: 24px&quot;&gt;环境切分&lt;/li&gt;&lt;li style=&quot;font-size: 24px&quot;&gt;sourcemap&lt;/li&gt;&lt;li style=&quot;font-size: 24px&quot;&gt;session 的重新定义&lt;/li&gt;&lt;li style=&quot;font-size: 24px&quot;&gt;浏览器 sdk 路由&lt;/li&gt;&lt;li style=&quot;font-size: 24px&quot;&gt;ts 类型系统&lt;/li&gt;&lt;li style=&quot;font-size: 24px&quot;&gt;可测试性&lt;/li&gt;&lt;li style=&quot;font-size: 24px&quot;&gt;orm&lt;/li&gt;&lt;li style=&quot;font-size: 24px&quot;&gt;数据表设计&lt;/li&gt;&lt;/ol&gt;" style="text;strokeColor=none;html=1;whiteSpace=wrap;verticalAlign=top;overflow=hidden;fontSize=24;horizontal=1;lineHeight=1.5" parent="1" vertex="1">
          <mxGeometry x="-110" y="800" width="420" height="310" as="geometry" />
        </mxCell>
      </root>
    </mxGraphModel>
  </diagram>
</mxfile>
